<svg width="40" height="40" viewBox="0 0 40 40" fill="none" xmlns="http://www.w3.org/2000/svg">
<g clip-path="url(#clip0_76_1422)">
<path d="M5.00005 21.6667H6.66672V33.3334C6.66672 35.1717 8.16172 36.6667 10.0001 36.6667H30C31.8384 36.6667 33.3334 35.1717 33.3334 33.3334V21.6667H35C35.3296 21.6666 35.6518 21.5689 35.9258 21.3857C36.1998 21.2026 36.4134 20.9423 36.5395 20.6378C36.6656 20.3333 36.6986 19.9983 36.6344 19.675C36.5701 19.3517 36.4114 19.0548 36.1784 18.8217L21.1784 3.82172C20.8658 3.50927 20.442 3.33374 20.0001 3.33374C19.5581 3.33374 19.1343 3.50927 18.8217 3.82172L3.82172 18.8217C3.5887 19.0548 3.43003 19.3517 3.36575 19.675C3.30147 19.9983 3.33447 20.3333 3.46059 20.6378C3.58671 20.9423 3.80027 21.2026 4.07429 21.3857C4.3483 21.5689 4.67047 21.6666 5.00005 21.6667ZM16.6667 33.3334V25H23.3334V33.3334H16.6667ZM20.0001 7.35672L30 17.3567V25L30.0017 33.3334H26.6667V25C26.6667 23.1617 25.1717 21.6667 23.3334 21.6667H16.6667C14.8284 21.6667 13.3334 23.1617 13.3334 25V33.3334H10.0001V17.3567L20.0001 7.35672Z" fill="#02275D"/>
</g>
<defs>
<clipPath id="clip0_76_1422">
<rect width="40" height="40" fill="white"/>
</clipPath>
</defs>
</svg>
