<svg width="40" height="40" viewBox="0 0 40 40" fill="none" xmlns="http://www.w3.org/2000/svg">
<g clip-path="url(#clip0_18_534)">
<path d="M30 25.0002H10L3.33337 31.6668V5.00016C3.33337 4.55814 3.50897 4.13421 3.82153 3.82165C4.13409 3.50909 4.55801 3.3335 5.00004 3.3335H30C30.4421 3.3335 30.866 3.50909 31.1786 3.82165C31.4911 4.13421 31.6667 4.55814 31.6667 5.00016V23.3335C31.6667 23.7755 31.4911 24.1994 31.1786 24.512C30.866 24.8246 30.4421 25.0002 30 25.0002ZM38.3334 15.0002V38.3335L31.6667 31.6668H13.3334C12.8913 31.6668 12.4674 31.4912 12.1549 31.1787C11.8423 30.8661 11.6667 30.4422 11.6667 30.0002V28.3335H35V13.3335H36.6667C37.1087 13.3335 37.5327 13.5091 37.8452 13.8217C38.1578 14.1342 38.3334 14.5581 38.3334 15.0002ZM13.65 6.66683C12.2 6.66683 11.0334 7.00016 10.1334 7.65016C9.26671 8.3335 8.83337 9.2835 8.85004 10.6002L8.86671 10.6502H12.0834C12.1 10.1502 12.25 9.76683 12.55 9.50016C12.8587 9.24424 13.2492 9.10814 13.65 9.11683C14.1667 9.11683 14.6 9.2835 14.9 9.5835C15.2 9.90016 15.3334 10.3335 15.3334 10.8335C15.3334 11.3668 15.2167 11.8168 14.95 12.2002C14.7167 12.5835 14.3667 12.9168 13.9334 13.1835C13.0834 13.7502 12.5 14.2502 12.1834 14.7002C11.85 15.1335 11.6667 15.8335 11.6667 16.6668H15C15 16.1502 15.0667 15.7335 15.2167 15.4335C15.3667 15.1335 15.65 14.8335 16.0667 14.5668C16.8167 14.1668 17.4334 13.6835 17.9167 13.0168C18.4 12.3502 18.65 11.6668 18.65 10.8335C18.65 9.56683 18.2 8.55016 17.3 7.80016C16.4167 7.05016 15.2 6.66683 13.65 6.66683ZM11.6667 18.3335V21.6668H15V18.3335H11.6667ZM21.6667 21.6668H25V18.3335H21.6667V21.6668ZM21.6667 6.66683V16.6668H25V6.66683H21.6667Z" fill="#02275D"/>
</g>
<defs>
<clipPath id="clip0_18_534">
<rect width="40" height="40" fill="white"/>
</clipPath>
</defs>
</svg>
