<svg width="40" height="40" viewBox="0 0 40 40" fill="none" xmlns="http://www.w3.org/2000/svg">
<g clip-path="url(#clip0_18_526)">
<path fill-rule="evenodd" clip-rule="evenodd" d="M13.4851 3.75016C12.9553 3.74791 12.4303 3.85004 11.9399 4.0507C11.4496 4.25137 11.0037 4.54664 10.6275 4.91966C9.86771 5.67301 9.43833 6.69731 9.4338 7.76724C9.42927 8.83717 9.84995 9.86507 10.6033 10.6248C11.3567 11.3846 12.381 11.814 13.4509 11.8185H13.5192C14.5891 11.814 15.6135 11.3846 16.3668 10.6248C17.1202 9.86507 17.5408 8.83717 17.5363 7.76724C17.5318 6.69731 17.1024 5.67301 16.3426 4.91966C15.5829 4.16631 14.555 3.74563 13.4851 3.75016ZM6.11672 7.78349C6.11405 9.33904 6.60609 10.8551 7.52172 12.1127C3.88589 12.8843 1.29922 15.8893 0.812554 19.616C0.562554 21.5327 0.365887 23.7052 0.427554 25.5818C0.494221 27.6402 2.04339 29.1877 4.00255 29.4118C4.48839 29.4677 5.07089 29.5235 5.76589 29.5752C5.97089 31.661 6.25589 33.9735 6.64089 35.9568C6.92422 37.4193 7.97005 38.796 9.64755 39.1818C10.5767 39.396 11.8559 39.5835 13.4842 39.5835C13.8459 39.5835 14.1903 39.5749 14.5176 39.5577C14.959 39.5351 15.3735 39.3381 15.6697 39.01C15.9659 38.6819 16.1197 38.2495 16.0971 37.8081C16.0746 37.3666 15.8776 36.9522 15.5495 36.6559C15.2214 36.3597 14.789 36.2059 14.3476 36.2285C14.077 36.2424 13.7892 36.2496 13.4842 36.2502C12.1142 36.2502 11.0851 36.0918 10.3951 35.9335C10.2201 35.8935 9.99172 35.7252 9.91255 35.3218C9.47089 33.046 9.16089 30.231 8.95505 27.8585C8.92044 27.458 8.74222 27.0835 8.45324 26.804C8.16427 26.5245 7.78401 26.3589 7.38255 26.3377C6.38012 26.2886 5.37939 26.2094 4.38172 26.1002C3.97672 26.0543 3.76922 25.7918 3.75922 25.4718C3.70589 23.8635 3.87589 21.8993 4.11755 20.0485C4.47339 17.3285 6.45672 15.4052 9.06005 15.2627C10.5182 15.1862 11.9782 15.1492 13.4384 15.1518H13.5292C15.2526 15.1518 16.7017 15.196 17.9076 15.2627C19.6442 15.3577 21.0634 16.2302 21.9417 17.5593C22.0624 17.742 22.2178 17.8991 22.3992 18.0216C22.5805 18.1442 22.7843 18.2299 22.9987 18.2737C23.2132 18.3175 23.4342 18.3187 23.6491 18.2771C23.864 18.2356 24.0687 18.1521 24.2513 18.0314C24.4339 17.9108 24.591 17.7553 24.7136 17.5739C24.8362 17.3926 24.9218 17.1889 24.9657 16.9744C25.0095 16.7599 25.0107 16.5389 24.9691 16.324C24.9275 16.1091 24.844 15.9045 24.7234 15.7218C23.5099 13.8692 21.6126 12.5719 19.4459 12.1135C20.1286 11.1729 20.5792 10.0841 20.7606 8.93602C20.942 7.78798 20.8492 6.6133 20.4898 5.50798C20.1303 4.40266 19.5145 3.39808 18.6925 2.57634C17.8705 1.75459 16.8658 1.13901 15.7603 0.779886C14.6549 0.420767 13.4802 0.328308 12.3322 0.510066C11.1842 0.691823 10.0955 1.14264 9.15513 1.82567C8.21471 2.5087 7.44926 3.40456 6.92132 4.44003C6.39339 5.4755 6.11713 6.6212 6.11672 7.78349ZM28.8526 22.481C28.3992 22.481 28.0067 22.5085 27.6826 22.546C27.4901 22.5685 27.2542 22.7077 27.1159 23.046C26.9826 23.371 26.8484 23.7235 26.7292 24.0777C27.3792 24.061 28.087 24.0527 28.8526 24.0527C30.0009 24.0527 30.3242 24.0618 30.9759 24.0777C30.8576 23.7298 30.7283 23.3857 30.5884 23.046C30.4501 22.7077 30.2151 22.5685 30.0217 22.546C29.6984 22.5085 29.3051 22.481 28.8526 22.481ZM24.0317 21.781C23.7551 22.4568 23.4201 23.3627 23.2109 24.2602C22.7831 24.2968 22.4014 24.3357 22.0659 24.3768C20.0476 24.616 18.5992 26.196 18.3576 28.1152C18.0428 30.574 18.0428 33.063 18.3576 35.5218C18.5992 37.441 20.0476 39.0202 22.0659 39.261C23.4709 39.4277 25.6392 39.5835 28.8526 39.5835C32.0659 39.5835 34.2342 39.4277 35.6384 39.261C37.6567 39.0202 39.105 37.441 39.3467 35.5218C39.6615 33.063 39.6615 30.574 39.3467 28.1152C39.105 26.196 37.6567 24.616 35.6384 24.376C35.3028 24.336 34.9212 24.2971 34.4934 24.2593C34.285 23.3627 33.9492 22.4568 33.6726 21.781C33.1401 20.4827 31.9692 19.416 30.4059 19.2352C29.89 19.1757 29.371 19.1465 28.8517 19.1477C28.333 19.1466 27.8146 19.1758 27.2992 19.2352C25.7359 19.416 24.5642 20.4827 24.0326 21.781" fill="#02275D"/>
</g>
<defs>
<clipPath id="clip0_18_526">
<rect width="40" height="40" fill="white"/>
</clipPath>
</defs>
</svg>
