<svg width="40" height="40" viewBox="0 0 40 40" fill="none" xmlns="http://www.w3.org/2000/svg">
<g clip-path="url(#clip0_18_54)">
<path fill-rule="evenodd" clip-rule="evenodd" d="M23.6799 8.04967C24.4355 8.28301 25.1577 8.58301 25.8466 8.94967L28.9016 7.11634C29.2201 6.92528 29.5934 6.84611 29.9621 6.8914C30.3308 6.93669 30.6738 7.10385 30.9366 7.36634L32.6333 9.06301C32.8957 9.32584 33.0629 9.66883 33.1082 10.0375C33.1535 10.4062 33.0743 10.7795 32.8833 11.098L31.0499 14.153C31.4166 14.8419 31.7166 15.5641 31.9499 16.3197L35.4049 17.1847C35.7653 17.275 36.0852 17.4831 36.3138 17.776C36.5424 18.0689 36.6666 18.4298 36.6666 18.8013V21.198C36.6666 21.5696 36.5424 21.9304 36.3138 22.2234C36.0852 22.5163 35.7653 22.7244 35.4049 22.8147L31.9499 23.6797C31.7166 24.4352 31.4166 25.1575 31.0499 25.8463L32.8833 28.9013C33.0743 29.2199 33.1535 29.5931 33.1082 29.9618C33.0629 30.3305 32.8957 30.6735 32.6333 30.9363L30.9366 32.633C30.6738 32.8955 30.3308 33.0627 29.9621 33.1079C29.5934 33.1532 29.2201 33.0741 28.9016 32.883L25.8466 31.0497C25.1577 31.4163 24.4355 31.7163 23.6799 31.9497L22.8149 35.4047C22.7246 35.7651 22.5165 36.085 22.2236 36.3136C21.9307 36.5422 21.5698 36.6663 21.1983 36.6663H18.8016C18.43 36.6663 18.0691 36.5422 17.7762 36.3136C17.4833 36.085 17.2752 35.7651 17.1849 35.4047L16.3199 31.9497C15.5711 31.7183 14.8457 31.4169 14.1533 31.0497L11.0983 32.883C10.7797 33.0741 10.4064 33.1532 10.0378 33.1079C9.66908 33.0627 9.32609 32.8955 9.06325 32.633L7.36659 30.9363C7.1041 30.6735 6.93694 30.3305 6.89164 29.9618C6.84635 29.5931 6.92552 29.2199 7.11659 28.9013L8.94992 25.8463C8.58265 25.1539 8.28133 24.4285 8.04992 23.6797L4.59492 22.8147C4.23478 22.7245 3.91508 22.5166 3.68652 22.224C3.45796 21.9314 3.33363 21.5709 3.33325 21.1997V18.803C3.33326 18.4315 3.45742 18.0706 3.68601 17.7777C3.9146 17.4848 4.23451 17.2766 4.59492 17.1863L8.04992 16.3213C8.28325 15.5658 8.58325 14.8436 8.94992 14.1547L7.11659 11.0997C6.92552 10.7811 6.84635 10.4079 6.89164 10.0392C6.93694 9.6705 7.1041 9.32751 7.36659 9.06467L9.06325 7.36634C9.32609 7.10385 9.66908 6.93669 10.0378 6.8914C10.4064 6.84611 10.7797 6.92528 11.0983 7.11634L14.1533 8.94967C14.8421 8.58301 15.5644 8.28301 16.3199 8.04967L17.1849 4.59467C17.2751 4.23454 17.483 3.91484 17.7756 3.68628C18.0682 3.45772 18.4287 3.33339 18.7999 3.33301H21.1966C21.5681 3.33302 21.929 3.45718 22.2219 3.68577C22.5148 3.91436 22.723 4.23426 22.8133 4.59467L23.6799 8.04967ZM19.9999 26.6663C21.768 26.6663 23.4637 25.964 24.714 24.7137C25.9642 23.4635 26.6666 21.7678 26.6666 19.9997C26.6666 18.2316 25.9642 16.5359 24.714 15.2856C23.4637 14.0354 21.768 13.333 19.9999 13.333C18.2318 13.333 16.5361 14.0354 15.2859 15.2856C14.0356 16.5359 13.3333 18.2316 13.3333 19.9997C13.3333 21.7678 14.0356 23.4635 15.2859 24.7137C16.5361 25.964 18.2318 26.6663 19.9999 26.6663Z" fill="#02275D"/>
</g>
<defs>
<clipPath id="clip0_18_54">
<rect width="40" height="40" fill="white"/>
</clipPath>
</defs>
</svg>
