<svg width="40" height="40" viewBox="0 0 40 40" fill="none" xmlns="http://www.w3.org/2000/svg">
<g clip-path="url(#clip0_18_522)">
<path d="M32.5 2.5C33.8261 2.5 35.0979 3.02678 36.0355 3.96447C36.9732 4.90215 37.5 6.17392 37.5 7.5V23.125C37.5 23.6223 37.3025 24.0992 36.9508 24.4508C36.5992 24.8025 36.1223 25 35.625 25C35.1277 25 34.6508 24.8025 34.2992 24.4508C33.9475 24.0992 33.75 23.6223 33.75 23.125V7.5C33.75 7.16848 33.6183 6.85054 33.3839 6.61612C33.1495 6.3817 32.8315 6.25 32.5 6.25H7.5C7.16848 6.25 6.85054 6.3817 6.61612 6.61612C6.3817 6.85054 6.25 7.16848 6.25 7.5V32.5C6.25 32.8315 6.3817 33.1495 6.61612 33.3839C6.85054 33.6183 7.16848 33.75 7.5 33.75H20.625C21.1223 33.75 21.5992 33.9475 21.9508 34.2992C22.3025 34.6508 22.5 35.1277 22.5 35.625C22.5 36.1223 22.3025 36.5992 21.9508 36.9508C21.5992 37.3025 21.1223 37.5 20.625 37.5H7.5C6.17392 37.5 4.90215 36.9732 3.96447 36.0355C3.02678 35.0979 2.5 33.8261 2.5 32.5V7.5C2.5 6.17392 3.02678 4.90215 3.96447 3.96447C4.90215 3.02678 6.17392 2.5 7.5 2.5H32.5ZM35.55 28.05C35.7217 27.8658 35.9287 27.718 36.1587 27.6155C36.3887 27.5131 36.6369 27.458 36.8887 27.4535C37.1405 27.4491 37.3905 27.4954 37.624 27.5897C37.8575 27.684 38.0695 27.8244 38.2476 28.0024C38.4256 28.1805 38.566 28.3925 38.6603 28.626C38.7546 28.8595 38.8009 29.1095 38.7965 29.3613C38.792 29.6131 38.7369 29.8613 38.6345 30.0913C38.532 30.3213 38.3842 30.5283 38.2 30.7L31.95 36.95C31.6436 37.2564 31.2406 37.4472 30.8095 37.4901C30.3783 37.5329 29.9457 37.4251 29.585 37.185L29.3 36.95L26.8 34.45L26.67 34.31C26.3722 33.9504 26.2193 33.4926 26.2412 33.0263C26.2631 32.5599 26.4582 32.1185 26.7883 31.7883C27.1185 31.4582 27.5599 31.2631 28.0263 31.2412C28.4926 31.2193 28.9504 31.3722 29.31 31.67L29.45 31.8L30.625 32.975L35.55 28.05ZM20.8175 26.26C21.2788 26.3078 21.706 26.525 22.0166 26.8694C22.3272 27.2139 22.4991 27.6612 22.4991 28.125C22.4991 28.5888 22.3272 29.0361 22.0166 29.3806C21.706 29.725 21.2788 29.9422 20.8175 29.99L20.625 30H11.875C11.3777 30 10.9008 29.8025 10.5492 29.4508C10.1975 29.0992 10 28.6223 10 28.125C10 27.6277 10.1975 27.1508 10.5492 26.7992C10.9008 26.4475 11.3777 26.25 11.875 26.25H20.625L20.8175 26.26ZM28.125 18.125C28.6223 18.125 29.0992 18.3225 29.4508 18.6742C29.8025 19.0258 30 19.5027 30 20C30 20.4973 29.8025 20.9742 29.4508 21.3258C29.0992 21.6775 28.6223 21.875 28.125 21.875H11.875C11.3777 21.875 10.9008 21.6775 10.5492 21.3258C10.1975 20.9742 10 20.4973 10 20C10 19.5027 10.1975 19.0258 10.5492 18.6742C10.9008 18.3225 11.3777 18.125 11.875 18.125H28.125ZM28.125 10C28.6223 10 29.0992 10.1975 29.4508 10.5492C29.8025 10.9008 30 11.3777 30 11.875C30 12.3723 29.8025 12.8492 29.4508 13.2008C29.0992 13.5525 28.6223 13.75 28.125 13.75H11.875C11.3777 13.75 10.9008 13.5525 10.5492 13.2008C10.1975 12.8492 10 12.3723 10 11.875C10 11.3777 10.1975 10.9008 10.5492 10.5492C10.9008 10.1975 11.3777 10 11.875 10H28.125Z" fill="#02275D"/>
</g>
<defs>
<clipPath id="clip0_18_522">
<rect width="40" height="40" fill="white"/>
</clipPath>
</defs>
</svg>
