<svg width="40" height="40" viewBox="0 0 40 40" fill="none" xmlns="http://www.w3.org/2000/svg">
<g clip-path="url(#clip0_18_50)">
<path d="M24.2773 24.1406C23.6914 23.4766 23.0469 22.8906 22.3438 22.3828C21.6406 21.875 20.8854 21.4388 20.0781 21.0742C19.2708 20.7096 18.4505 20.4427 17.6172 20.2734C16.7839 20.1042 15.9115 20.013 15 20C13.8542 20 12.7474 20.1497 11.6797 20.4492C10.612 20.7487 9.61589 21.1654 8.69141 21.6992C7.76693 22.2331 6.92708 22.8841 6.17188 23.6523C5.41667 24.4206 4.76562 25.2669 4.21875 26.1914C3.67188 27.1159 3.2487 28.112 2.94922 29.1797C2.64974 30.2474 2.5 31.3542 2.5 32.5H0C0 30.9375 0.227865 29.4336 0.683594 27.9883C1.13932 26.543 1.79688 25.2083 2.65625 23.9844C3.51562 22.7604 4.53125 21.6732 5.70312 20.7227C6.875 19.7721 8.20312 19.0234 9.6875 18.4766C8.21615 17.513 7.07031 16.3021 6.25 14.8438C5.42969 13.3854 5.01302 11.7708 5 10C5 8.61979 5.26042 7.32422 5.78125 6.11328C6.30208 4.90234 7.01172 3.84115 7.91016 2.92969C8.80859 2.01823 9.86979 1.30208 11.0938 0.78125C12.3177 0.260417 13.6198 0 15 0C16.3802 0 17.6758 0.260417 18.8867 0.78125C20.0977 1.30208 21.1589 2.01172 22.0703 2.91016C22.9818 3.80859 23.6979 4.86979 24.2188 6.09375C24.7396 7.31771 25 8.61979 25 10C25 10.8594 24.8958 11.6992 24.6875 12.5195C24.4792 13.3398 24.1667 14.1146 23.75 14.8438C23.3333 15.5729 22.8451 16.2435 22.2852 16.8555C21.7253 17.4674 21.0677 18.0078 20.3125 18.4766C21.4062 18.8932 22.4349 19.4271 23.3984 20.0781C24.362 20.7292 25.2409 21.4909 26.0352 22.3633L24.2773 24.1406ZM7.5 10C7.5 11.0417 7.69531 12.0117 8.08594 12.9102C8.47656 13.8086 9.01042 14.6029 9.6875 15.293C10.3646 15.9831 11.1589 16.5234 12.0703 16.9141C12.9818 17.3047 13.9583 17.5 15 17.5C16.0286 17.5 16.9987 17.3047 17.9102 16.9141C18.8216 16.5234 19.6159 15.9896 20.293 15.3125C20.9701 14.6354 21.5104 13.8411 21.9141 12.9297C22.3177 12.0182 22.513 11.0417 22.5 10C22.5 8.97135 22.3047 8.0013 21.9141 7.08984C21.5234 6.17839 20.9896 5.38411 20.3125 4.70703C19.6354 4.02995 18.8346 3.48958 17.9102 3.08594C16.9857 2.68229 16.0156 2.48698 15 2.5C13.9583 2.5 12.9883 2.69531 12.0898 3.08594C11.1914 3.47656 10.3971 4.01042 9.70703 4.6875C9.01693 5.36458 8.47656 6.16536 8.08594 7.08984C7.69531 8.01432 7.5 8.98438 7.5 10ZM36.0938 17.5C36.6406 17.5 37.1484 17.5977 37.6172 17.793C38.0859 17.9883 38.5026 18.2552 38.8672 18.5938C39.2318 18.9323 39.5052 19.3424 39.6875 19.8242C39.8698 20.306 39.974 20.8203 40 21.3672C40 21.875 39.9023 22.3698 39.707 22.8516C39.5117 23.3333 39.2318 23.7565 38.8672 24.1211L24.8633 38.125L17.5 39.9609L19.3359 32.5977L33.3398 18.6133C33.7174 18.2357 34.1406 17.9557 34.6094 17.7734C35.0781 17.5911 35.5729 17.5 36.0938 17.5ZM37.0898 22.3633C37.3633 22.0898 37.5 21.7578 37.5 21.3672C37.5 20.9635 37.3698 20.638 37.1094 20.3906C36.849 20.1432 36.5104 20.013 36.0938 20C35.9115 20 35.7357 20.026 35.5664 20.0781C35.3971 20.1302 35.2474 20.2279 35.1172 20.3711L21.6016 33.8867L20.9375 36.5234L23.5742 35.8594L37.0898 22.3633Z" fill="#02275D"/>
</g>
<defs>
<clipPath id="clip0_18_50">
<rect width="40" height="40" fill="white"/>
</clipPath>
</defs>
</svg>
