<svg width="40" height="40" viewBox="0 0 40 40" fill="none" xmlns="http://www.w3.org/2000/svg">
<g clip-path="url(#clip0_18_530)">
<path d="M3.33337 8.33317C3.33337 7.89114 3.50897 7.46722 3.82153 7.15466C4.13409 6.8421 4.55801 6.6665 5.00004 6.6665H35C35.4421 6.6665 35.866 6.8421 36.1786 7.15466C36.4911 7.46722 36.6667 7.89114 36.6667 8.33317V31.6665C36.6667 32.1085 36.4911 32.5325 36.1786 32.845C35.866 33.1576 35.4421 33.3332 35 33.3332H5.00004C4.55801 33.3332 4.13409 33.1576 3.82153 32.845C3.50897 32.5325 3.33337 32.1085 3.33337 31.6665V8.33317Z" stroke="#02275D" stroke-width="3.33333" stroke-linejoin="round"/>
<path d="M30 6.6665V33.3332M10 6.6665V33.3332M31.6667 14.9998H36.6667M31.6667 24.9998H36.6667M3.33337 14.9998H8.33337M3.33337 13.3332V16.6665M7.50004 6.6665H12.5M7.50004 33.3332H12.5M27.5 6.6665H32.5M27.5 33.3332H32.5M3.33337 24.9998H8.33337M3.33337 23.3332V26.6665M36.6667 23.3332V26.6665M36.6667 13.3332V16.6665" stroke="#02275D" stroke-width="3.33333" stroke-linecap="round" stroke-linejoin="round"/>
<path d="M17.5 15.833L24.1667 19.9997L17.5 24.1663V15.833Z" stroke="#02275D" stroke-width="3.33333" stroke-linejoin="round"/>
</g>
<defs>
<clipPath id="clip0_18_530">
<rect width="40" height="40" fill="white"/>
</clipPath>
</defs>
</svg>
